<?xml version="1.0" encoding="UTF-8"?>
<svg version="1.1" xmlns="http://www.w3.org/2000/svg" width="5262" height="3543">
<path d="M0 0 C1736.46 0 3472.92 0 5262 0 C5262 1169.19 5262 2338.38 5262 3543 C3525.54 3543 1789.08 3543 0 3543 C0 2373.81 0 1204.62 0 0 Z " fill="#383B40" transform="translate(0,0)"/>
<path d="M0 0 C23.43 0 46.86 0 71 0 C71 71.94 71 143.88 71 218 C72.65 218.33 74.3 218.66 76 219 C95.17339023 227.04277043 113.4225015 241.92452788 124 260 C124.99580078 261.69189453 124.99580078 261.69189453 126.01171875 263.41796875 C138.30278098 285.00546085 140.47071703 306.8363647 140.29296875 331.19140625 C140.28735964 333.47639179 140.28309577 335.76138099 140.28010559 338.04637146 C140.2687603 344.00241407 140.23938422 349.95823021 140.20599365 355.91418457 C140.17506793 362.0150242 140.1615526 368.11590112 140.14648438 374.21679688 C140.11450277 386.14462966 140.06343427 398.07229585 140 410 C140.61929571 410.20273749 141.23859142 410.40547499 141.87665367 410.61435604 C142.68832811 410.88204076 143.50000256 411.14972548 144.33627319 411.42552185 C145.1411939 411.69013434 145.94611462 411.95474684 146.77542686 412.22737789 C149.22293991 413.07742982 151.45558919 414.10164714 153.7265625 415.34765625 C154.52320312 415.78287598 155.31984375 416.2180957 156.140625 416.66650391 C156.96046875 417.12718262 157.7803125 417.58786133 158.625 418.0625 C159.49382813 418.54638184 160.36265625 419.03026367 161.2578125 419.52880859 C182.78999411 431.67628384 202.09155606 447.02194381 220 464 C220.75410156 464.7115625 221.50820312 465.423125 222.28515625 466.15625 C227.6728464 471.38327344 232.32083459 477.14072761 237 483 C237.65871094 483.79148437 238.31742188 484.58296875 238.99609375 485.3984375 C258.00894122 508.42808373 271.25570895 535.81990992 278.375 564.75 C278.61395996 565.71856934 278.85291992 566.68713867 279.09912109 567.68505859 C282.36440175 581.8456421 283.29866021 596.04132397 283.31884766 610.52563477 C283.32817962 612.0946299 283.33835293 613.66362021 283.34928894 615.23260498 C283.3762355 619.43186748 283.39163142 623.63109716 283.40471697 627.83042264 C283.42050492 632.24131044 283.44724383 636.65213263 283.4727478 641.06297302 C283.51926153 649.38867579 283.55613692 657.71439128 283.58942068 666.0401563 C283.62783753 675.53013277 283.67719541 685.0200429 283.72740483 694.50996315 C283.83031631 714.00659334 283.91970736 733.50326419 284 753 C288.82633783 755.28652791 293.65349827 757.57130779 298.48135376 759.85462952 C300.11572352 760.62787833 301.7498867 761.40156394 303.38381958 762.17573547 C313.71375822 767.06971129 324.07123688 771.89244367 334.4924736 776.5890789 C348.83491952 783.05296367 363.06808699 789.72905723 377.2734375 796.48852539 C387.81039685 801.50082007 398.3743567 806.4451759 408.98608398 811.29760742 C409.93684814 811.73306885 410.8876123 812.16853027 411.8671875 812.6171875 C412.67269043 812.98440918 413.47819336 813.35163086 414.30810547 813.72998047 C417.9016227 815.42538013 421.44610118 817.22305059 425 819 C425 1024.92 425 1230.84 425 1443 C401.24 1443 377.48 1443 353 1443 C352.67 1252.26 352.34 1061.52 352 865 C333.7377347 856.4059928 315.5451536 847.86118546 297.16699219 839.55322266 C285.90408456 834.45346802 274.73655797 829.16159543 263.5748291 823.8447876 C252.5982737 818.61879186 241.58272981 813.49674723 230.5 808.5 C218.45676964 803.06951592 206.49298791 797.48636192 194.5625 791.8125 C180.98150631 785.35453334 167.36687266 778.98130472 153.70117188 772.70410156 C145.93825226 769.13337137 138.18950862 765.5318339 130.4375 761.9375 C127.79136634 760.71077284 125.14521118 759.48409209 122.49905396 758.25741577 C120.70678555 757.42656949 118.91452896 756.59569773 117.12228394 755.76480103 C111.73630181 753.2679459 106.34979144 750.77223523 100.96272278 748.27772522 C98.31676585 747.05246809 95.67095445 745.82689711 93.02514648 744.60131836 C89.57738695 743.00437874 86.12890532 741.40901278 82.67993164 739.81469727 C74.7704399 736.15597081 66.87278513 732.47582753 59.00390625 728.73046875 C56.94129368 727.7526764 54.87842743 726.77542099 52.81552124 725.79824829 C50.93847412 724.9051993 49.06651148 724.00209824 47.19458008 723.09838867 C46.07591553 722.56834229 44.95725098 722.0382959 43.8046875 721.4921875 C42.36585205 720.80165283 42.36585205 720.80165283 40.89794922 720.09716797 C36.43109398 718.4060098 32.72840021 717.50395173 28.06689453 718.84179688 C27.09864746 719.29619141 26.13040039 719.75058594 25.1328125 720.21875 C24.01729004 720.73107178 22.90176758 721.24339355 21.75244141 721.77124023 C20.54321273 722.34732235 19.33406813 722.923581 18.125 723.5 C16.84505035 724.09428145 15.56426778 724.68677183 14.28271484 725.27758789 C11.57135098 726.53001196 8.86436233 727.79127991 6.16015625 729.05908203 C0.0289784 731.92790543 -6.1417356 734.70954236 -12.30841064 737.50097656 C-15.09057553 738.76177984 -17.8704513 740.02758552 -20.65029907 741.29348755 C-29.25878333 745.21362754 -37.87747346 749.11086265 -46.5 753 C-57.17492787 757.81525975 -67.84075724 762.6501195 -78.5 767.5 C-89.79731495 772.64019886 -101.1031156 777.76110997 -112.41699219 782.86474609 C-122.45267103 787.39229281 -132.47882912 791.94043772 -142.5 796.5 C-153.79731495 801.64019886 -165.1031156 806.76110997 -176.41699219 811.86474609 C-186.45267139 816.39229297 -196.47878408 820.9405362 -206.5 825.5 C-218.46241497 830.94229358 -230.43139019 836.36974886 -242.4128418 841.77001953 C-243.6775851 842.34013935 -244.94231489 842.91028916 -246.20703125 843.48046875 C-246.83415512 843.76319641 -247.46127899 844.04592407 -248.10740662 844.33721924 C-252.25784778 846.20988406 -256.4038401 848.09212974 -260.54748535 849.9797821 C-263.43802009 851.2963108 -266.32977661 852.61014345 -269.22161865 853.92379761 C-270.60703763 854.55406477 -271.99185284 855.18566091 -273.3760376 855.81863403 C-275.28694268 856.69234783 -277.19985937 857.56150251 -279.11328125 858.4296875 C-280.20423096 858.92710449 -281.29518066 859.42452148 -282.41918945 859.93701172 C-285 861 -285 861 -287 861 C-287 1053.06 -287 1245.12 -287 1443 C-310.76 1443 -334.52 1443 -359 1443 C-359 1236.09 -359 1029.18 -359 816 C-340.57113786 806.78556893 -340.57113786 806.78556893 -334.15234375 803.8515625 C-333.41561935 803.51243835 -332.67889496 803.17331421 -331.91984558 802.82391357 C-329.59377501 801.75457493 -327.26578836 800.68950003 -324.9375 799.625 C-324.13350769 799.2562677 -323.32951538 798.8875354 -322.50115967 798.50762939 C-311.92325593 793.65681477 -301.32462037 788.86620408 -290.61694336 784.30712891 C-284.39873403 781.65283933 -278.27332418 778.81602251 -272.15332031 775.94482422 C-265.35753077 772.75760747 -258.53811306 769.62137214 -251.71948242 766.48339844 C-250.1090354 765.74179894 -248.49901186 764.99927913 -246.8894043 764.25585938 C-220.35203453 752 -220.35203453 752 -217 752 C-217.00276538 751.21814079 -217.00553076 750.43628159 -217.00837994 749.63072968 C-217.0749983 730.49513229 -217.12445335 711.35955844 -217.15543652 692.22386932 C-217.17082281 682.96951601 -217.19175209 673.7152407 -217.22631836 664.4609375 C-217.25647584 656.38304602 -217.27563462 648.3052111 -217.28226548 640.22726488 C-217.28613376 635.96080033 -217.29504644 631.6944974 -217.31719017 627.42808533 C-217.62512558 565.57606942 -200.51486591 513.14463616 -157 468 C-156.41669922 467.39478516 -155.83339844 466.78957031 -155.23242188 466.16601562 C-147.55509706 458.24852423 -139.79817232 450.68322705 -131 444 C-130.46503906 443.58862793 -129.93007812 443.17725586 -129.37890625 442.75341797 C-86.6286071 410 -86.6286071 410 -74 410 C-74.00999275 408.13982994 -74.00999275 408.13982994 -74.02018738 406.24208069 C-74.08130747 394.48920448 -74.12611991 382.736361 -74.15543652 370.98336124 C-74.17101569 364.94269693 -74.19211064 358.90216209 -74.22631836 352.86157227 C-74.25919034 347.01952805 -74.27691109 341.17760748 -74.28463173 335.33547783 C-74.2901257 333.11943049 -74.30085219 330.90338902 -74.31719017 328.6873951 C-74.54458929 296.53163882 -67.38123416 266.89738721 -44.52856445 243.11035156 C-35.59294273 234.08707131 -26.41158226 227.63614012 -15.25 221.625 C-14.43305664 221.18309326 -13.61611328 220.74118652 -12.77441406 220.28588867 C-11.98776367 219.87443604 -11.20111328 219.4629834 -10.390625 219.0390625 C-9.68969727 218.66990723 -8.98876953 218.30075195 -8.26660156 217.92041016 C-6 217 -6 217 0 216 C0 144.72 0 73.44 0 0 Z " fill="#A87C50" transform="translate(2598,835)"/>
<path d="M0 0 C10.89 0 21.78 0 33 0 C33 92.73 33 185.46 33 281 C27.72 282.65 22.44 284.3 17 286 C13.75315483 288.01830916 11.59484929 289.42413741 9 292 C8.17628906 292.80244141 8.17628906 292.80244141 7.3359375 293.62109375 C-1.71823451 303.2773905 -1.60332693 313.83132993 -1.609375 326.37890625 C-1.62437365 328.15967806 -1.64110431 329.94043604 -1.65948486 331.72117615 C-1.70298166 336.38177161 -1.72311807 341.04217947 -1.73822021 345.70294189 C-1.75785533 350.46939099 -1.79981797 355.23563936 -1.83984375 360.00195312 C-1.91495419 369.33457323 -1.96536141 378.667148 -2 388 C-1.34 387.67 -0.68 387.34 0 387 C10.95043338 385.90495666 21.99495065 386 33 386 C33 409.1 33 432.2 33 456 C25.08 456.99 17.16 457.98 9 459 C-28.26130397 465.77478254 -63.39106368 480.78239656 -92 506 C-92.97195313 506.85078125 -93.94390625 507.7015625 -94.9453125 508.578125 C-107.19594581 519.45928094 -117.20602904 531.19654519 -126 545 C-126.38317383 545.60102539 -126.76634766 546.20205078 -127.16113281 546.82128906 C-141.60590916 569.85832774 -144.61562096 593.3323259 -144.60750484 620.06622744 C-144.61067976 623.52155926 -144.63639064 626.97673058 -144.65948486 630.43197632 C-144.69970389 636.94437138 -144.72030424 643.45666723 -144.73345876 649.96916711 C-144.74944592 657.39637514 -144.78790917 664.82341702 -144.82805204 672.25052762 C-144.90998302 687.50030205 -144.96436565 702.75004271 -145 718 C-144.19154633 717.6369577 -143.38309265 717.27391541 -142.55014038 716.89987183 C-139.48181028 715.52232735 -136.41326118 714.14527287 -133.34457397 712.76852417 C-132.02934433 712.17834037 -130.71419631 711.58797462 -129.3991394 710.99740601 C-120.49256292 706.99781367 -111.56993758 703.03822993 -102.625 699.125 C-94.55241492 695.58988148 -86.53833705 691.96715887 -78.59765625 688.14453125 C-76 687 -76 687 -74 687 C-74.00645255 686.29708108 -74.0129051 685.59416216 -74.01955318 684.86994267 C-74.17434664 667.74255507 -74.29007792 650.61534584 -74.3626852 633.48741245 C-74.39873373 625.20432428 -74.44785385 616.92170388 -74.52807617 608.63891602 C-74.59798943 601.41705548 -74.64304114 594.19553382 -74.65861946 586.97334427 C-74.66772178 583.15133855 -74.68901284 579.330302 -74.7401104 575.50860786 C-74.78788724 571.90583649 -74.80222939 568.30442643 -74.79175377 564.70136833 C-74.79457572 562.75988197 -74.83210984 560.81854146 -74.87094116 558.87744141 C-74.80171792 550.43535738 -72.92694524 545.98338065 -67 540 C-66.51185538 539.4527958 -66.02371077 538.9055916 -65.52077389 538.34180546 C-49.607468 520.60832133 -27.6934005 509.49576397 -5 503 C-4.01 503 -3.02 503 -2 503 C-1.67 552.5 -1.34 602 -1 653 C14.345 646.07 14.345 646.07 30 639 C31.32 639 32.64 639 34 639 C34 664.41 34 689.82 34 716 C25.85596052 720.07201974 17.9284936 724.02089441 9.5625 727.5 C1.74701093 730.80406394 -5.96254467 734.25084052 -13.63232422 737.88183594 C-18.9556004 740.39581871 -24.28884647 742.88848766 -29.625 745.375 C-30.23186646 745.65784851 -30.83873291 745.94069702 -31.46398926 746.2321167 C-40.12226215 750.26162112 -48.82336997 754.16676615 -57.63720703 757.84521484 C-64.46539873 760.70789816 -71.15548491 763.84951656 -77.85574341 766.99597168 C-84.160822 769.94826642 -90.4850682 772.85964337 -96.80541992 775.77905273 C-98.47169893 776.54899079 -100.13771637 777.31949519 -101.8034668 778.09057617 C-111.29891678 782.48594371 -120.81405667 786.82709904 -130.38366699 791.05871582 C-137.65965353 794.28044121 -144.88888496 797.60103977 -152.11730957 800.92776489 C-163.44422659 806.13787588 -174.78906043 811.2715334 -186.27246094 816.12963867 C-192.80006984 818.89515744 -199.22456906 821.84830291 -205.63232422 824.88183594 C-210.9556004 827.39581871 -216.28884647 829.88848766 -221.625 832.375 C-222.23186646 832.65784851 -222.83873291 832.94069702 -223.46398926 833.2321167 C-232.20546023 837.30034097 -241.00239317 841.20773642 -249.88330078 844.96166992 C-257.34817229 848.12237206 -264.67669658 851.52453397 -272 855 C-274.43474624 856.15192295 -276.87269133 857.29625616 -279.3125 858.4375 C-280.36050781 858.93121094 -281.40851562 859.42492188 -282.48828125 859.93359375 C-285 861 -285 861 -287 861 C-287 1053.06 -287 1245.12 -287 1443 C-310.76 1443 -334.52 1443 -359 1443 C-359 1236.09 -359 1029.18 -359 816 C-340.57113786 806.78556893 -340.57113786 806.78556893 -334.15234375 803.8515625 C-333.41561935 803.51243835 -332.67889496 803.17331421 -331.91984558 802.82391357 C-329.59377501 801.75457493 -327.26578836 800.68950003 -324.9375 799.625 C-324.13350769 799.2562677 -323.32951538 798.8875354 -322.50115967 798.50762939 C-311.92325593 793.65681477 -301.32462037 788.86620408 -290.61694336 784.30712891 C-284.39873403 781.65283933 -278.27332418 778.81602251 -272.15332031 775.94482422 C-265.35753077 772.75760747 -258.53811306 769.62137214 -251.71948242 766.48339844 C-250.1090354 765.74179894 -248.49901186 764.99927913 -246.8894043 764.25585938 C-220.35203453 752 -220.35203453 752 -217 752 C-217.00276538 751.21814079 -217.00553076 750.43628159 -217.00837994 749.63072968 C-217.0749983 730.49513229 -217.12445335 711.35955844 -217.15543652 692.22386932 C-217.17082281 682.96951601 -217.19175209 673.7152407 -217.22631836 664.4609375 C-217.25647584 656.38304602 -217.27563462 648.3052111 -217.28226548 640.22726488 C-217.28613376 635.96080033 -217.29504644 631.6944974 -217.31719017 627.42808533 C-217.62512558 565.57606942 -200.51486591 513.14463616 -157 468 C-156.41669922 467.39478516 -155.83339844 466.78957031 -155.23242188 466.16601562 C-147.55509706 458.24852423 -139.79817232 450.68322705 -131 444 C-130.46503906 443.58862793 -129.93007812 443.17725586 -129.37890625 442.75341797 C-86.6286071 410 -86.6286071 410 -74 410 C-74.00999275 408.13982994 -74.00999275 408.13982994 -74.02018738 406.24208069 C-74.08130747 394.48920448 -74.12611991 382.736361 -74.15543652 370.98336124 C-74.17101569 364.94269693 -74.19211064 358.90216209 -74.22631836 352.86157227 C-74.25919034 347.01952805 -74.27691109 341.17760748 -74.28463173 335.33547783 C-74.2901257 333.11943049 -74.30085219 330.90338902 -74.31719017 328.6873951 C-74.54458929 296.53163882 -67.38123416 266.89738721 -44.52856445 243.11035156 C-35.59294273 234.08707131 -26.41158226 227.63614012 -15.25 221.625 C-14.43305664 221.18309326 -13.61611328 220.74118652 -12.77441406 220.28588867 C-11.98776367 219.87443604 -11.20111328 219.4629834 -10.390625 219.0390625 C-9.68969727 218.66990723 -8.98876953 218.30075195 -8.26660156 217.92041016 C-6 217 -6 217 0 216 C0 144.72 0 73.44 0 0 Z " fill="#C3986B" transform="translate(2598,835)"/>
<path d="M0 0 C4.14904678 0.82980936 6.88584845 1.71978616 10.62890625 3.484375 C11.73306885 4.00128906 12.83723145 4.51820312 13.97485352 5.05078125 C15.75073853 5.89189453 15.75073853 5.89189453 17.5625 6.75 C18.80303169 7.3326115 20.04384045 7.91463337 21.28491211 8.49609375 C23.875924 9.71059365 26.46571094 10.92765211 29.0546875 12.14648438 C35.37957805 15.12138656 41.72194302 18.05868488 48.0625 21 C49.1956665 21.5269043 50.32883301 22.05380859 51.49633789 22.59667969 C53.12430298 23.35319824 53.12430298 23.35319824 54.78515625 24.125 C55.72238525 24.56070312 56.65961426 24.99640625 57.62524414 25.4453125 C62.40831527 27.64878475 67.20581104 29.8208232 72 32 C72 238.25 72 444.5 72 657 C48.24 657 24.48 657 0 657 C0 440.19 0 223.38 0 0 Z " fill="#A87C50" transform="translate(2666,1621)"/>
<path d="M0 0 C0 216.15 0 432.3 0 655 C-23.76 655 -47.52 655 -72 655 C-72 449.41 -72 243.82 -72 32 C-24.13074398 10.00601751 -24.13074398 10.00601751 -18.21948242 7.30883789 C-16.88481517 6.69900209 -15.55089123 6.08753806 -14.2175293 5.47485352 C-12.18437752 4.54089273 -10.14911727 3.61168584 -8.11328125 2.68359375 C-6.97673096 2.16337646 -5.84018066 1.64315918 -4.66918945 1.10717773 C-2 0 -2 0 0 0 Z " fill="#C2986B" transform="translate(2596,1623)"/>
<path d="M0 0 C0.77279297 0.16628906 1.54558594 0.33257813 2.34179688 0.50390625 C40.22341429 8.96382081 74.02375544 28.40229502 102 55 C102.68320313 55.61875 103.36640625 56.2375 104.0703125 56.875 C115.81990489 67.88717027 124.70213377 81.76291475 132 96 C132.47824219 96.89332031 132.95648437 97.78664063 133.44921875 98.70703125 C140.9984252 113.82925869 144.16614202 130.53167067 144.11352539 147.26928711 C144.11367142 148.48950562 144.11381744 149.70972412 144.1139679 150.96691895 C144.11339267 154.29493533 144.1083947 157.62288885 144.10139394 160.95089412 C144.09512139 164.43556834 144.09455352 167.92024349 144.09336853 171.40492249 C144.09026669 177.99560889 144.08206881 184.5862786 144.07201904 191.17695767 C144.06082222 198.6836254 144.05533847 206.19029395 144.05032361 213.69696796 C144.0398852 229.13132162 144.02230804 244.56565865 144 260 C140.84939852 258.58637968 137.69942938 257.17135551 134.54956055 255.75610352 C133.66932976 255.36117958 132.78909897 254.96625565 131.88219452 254.55936432 C123.47927379 250.78241308 115.13988081 246.87753518 106.8125 242.9375 C105.40958365 242.27522443 104.00658869 241.61311537 102.60351562 240.95117188 C100.59533034 240.00367874 98.58727131 239.05592124 96.57964802 238.10723782 C91.38052792 235.65062618 86.17863603 233.199954 80.9753418 230.75219727 C80.20239525 230.38852303 79.4294487 230.02484879 78.63307953 229.65015411 C76.75541232 228.76671421 74.87770994 227.88334908 73 227 C73.00867316 226.28199691 73.01734632 225.56399382 73.02628231 224.82423306 C73.23282156 207.29398267 73.35529464 189.76512027 73.38603115 172.23367977 C73.40288981 163.75511258 73.44742721 155.27843271 73.55883789 146.80053711 C73.65595794 139.40461339 73.699401 132.01057617 73.68036038 124.61400706 C73.67211356 120.70229794 73.68939561 116.79472116 73.77114677 112.8837719 C74.75936441 94.01751424 74.75936441 94.01751424 66.8670435 77.70308018 C63.76975318 74.80598383 60.50552536 72.37468011 57 70 C55.70531634 69.019922 54.41673927 68.03171461 53.13499451 67.03477478 C49.86437724 64.50042054 46.47820272 62.24214721 43 60 C42.06285156 59.37867188 41.12570313 58.75734375 40.16015625 58.1171875 C28.14302838 50.60016221 14.49473749 46.04842125 1 42 C1 91.83 1 141.66 1 193 C-3.32252456 191.55915848 -7.01845562 190.12213797 -11.0625 188.14453125 C-12.18914063 187.60505859 -13.31578125 187.06558594 -14.4765625 186.50976562 C-16.83012188 185.37603885 -19.17910033 184.23275388 -21.5234375 183.08007812 C-22.65007813 182.54447266 -23.77671875 182.00886719 -24.9375 181.45703125 C-26.46697266 180.7141687 -26.46697266 180.7141687 -28.02734375 179.95629883 C-34.02614088 178.02649525 -38.88991081 180.61588165 -44.33203125 183.16015625 C-45.00924728 183.46948593 -45.68646332 183.77881561 -46.38420105 184.09751892 C-48.5301268 185.07912741 -50.67142376 186.07036444 -52.8125 187.0625 C-54.97223917 188.05633042 -57.1328825 189.04814305 -59.2943573 190.03819275 C-60.63549248 190.65322828 -61.97546445 191.27080772 -63.31416321 191.89112854 C-67.89022609 194 -67.89022609 194 -69 194 C-69 144.17 -69 94.34 -69 43 C-92.66512733 51.28279457 -127.39594357 63.79188713 -140 89 C-140.10534208 90.82422981 -140.14661165 92.65229075 -140.15821838 94.47952271 C-140.1680072 95.64342529 -140.17779602 96.80732788 -140.18788147 98.00650024 C-140.19363693 99.28971161 -140.1993924 100.57292297 -140.20532227 101.89501953 C-140.21489864 103.2549062 -140.22490858 104.61478988 -140.23532104 105.97467041 C-140.26240227 109.67276204 -140.28339437 113.37086647 -140.30332303 117.06900263 C-140.32516277 120.9314321 -140.35256129 124.79382195 -140.37937927 128.65621948 C-140.42933342 135.97307007 -140.47426213 143.28994261 -140.51740164 150.6068362 C-140.56675078 158.93564986 -140.62167751 167.26442378 -140.67708123 175.59319901 C-140.79094305 192.72876263 -140.89777292 209.86436311 -141 227 C-142.06952911 227.46570404 -143.13905823 227.93140808 -144.24099731 228.41122437 C-145.67386757 229.03631282 -147.10671765 229.66144754 -148.53955078 230.28662109 C-149.59164482 230.74451271 -149.59164482 230.74451271 -150.66499329 231.21165466 C-156.51708009 233.76678521 -162.30963818 236.43683491 -168.08496094 239.16113281 C-174.64350787 242.24635283 -181.22533285 245.28128469 -187.81054688 248.30908203 C-189.37236927 249.02837703 -190.93322162 249.74978153 -192.49316406 250.47314453 C-194.78740537 251.5366655 -197.08472827 252.59325103 -199.3828125 253.6484375 C-200.07553253 253.9712973 -200.76825256 254.2941571 -201.48196411 254.62680054 C-204.98884016 256.22798592 -208.21580194 257.32232623 -212 258 C-212.11753834 242.06477831 -212.20532925 226.12967637 -212.25906086 210.19412708 C-212.28468825 202.79259947 -212.31953671 195.39134337 -212.37719727 187.98999023 C-212.42751259 181.52831729 -212.45940289 175.06684123 -212.47044247 168.60497779 C-212.47688131 165.19301055 -212.49167639 161.78160583 -212.52865028 158.36982155 C-212.68419224 142.20245269 -211.81980661 127.49720588 -207 112 C-206.62140335 110.78169998 -206.2428067 109.56339996 -205.85273743 108.30818176 C-192.22701368 67.43143581 -153.6749102 35.8383797 -116.71875 16.74609375 C-80.52479365 -1.24555696 -39.89560254 -8.6537003 0 0 Z " fill="#383B40" transform="translate(2665,1295)"/>
<path d="M0 0 C21.78 0 43.56 0 66 0 C75.18054975 18.3610995 75.18054975 18.3610995 78.03515625 24.91015625 C78.36237167 25.6509996 78.6895871 26.39184296 79.02671814 27.15513611 C80.04233293 29.4559884 81.05279772 31.75904786 82.0625 34.0625 C86.62174599 44.43261434 91.24519508 54.76060988 96.06710815 65.01132202 C99.32324213 71.95253602 102.5322554 78.91593291 105.75 85.875 C106.14229797 86.72296143 106.53459595 87.57092285 106.93878174 88.44458008 C112.31096874 100.06469677 117.60517017 111.7099798 122.65136719 123.47607422 C123.04227539 124.38115723 123.43318359 125.28624023 123.8359375 126.21875 C124.16126465 126.98123047 124.4865918 127.74371094 124.82177734 128.52929688 C126.37859936 131.79391329 128.17947559 134.8747426 130 138 C134.49183342 128.29130491 138.98004468 118.58093741 143.4609375 108.8671875 C144.03762428 107.61829742 144.03762428 107.61829742 144.6259613 106.34417725 C147.98679758 99.05516306 151.28352252 91.73804592 154.55859375 84.41015625 C158.0282474 76.68708308 161.58535644 69.00366149 165.125 61.3125 C170.88107323 48.80382818 176.61604961 36.28594676 182.3125 23.75 C182.6248761 23.06289948 182.9372522 22.37579895 183.25909424 21.6678772 C186.53615916 14.45818205 189.78347462 7.23718211 193 0 C214.78 0 236.56 0 259 0 C259 77.88 259 155.76 259 236 C241.51 236 224.02 236 206 236 C205.67 186.5 205.34 137 205 86 C196.12631731 106.15494523 196.12631731 106.15494523 187.36090088 126.35565186 C180.42270171 142.46773802 173.39297823 158.53880628 166.328125 174.59570312 C161.75624639 184.98804347 157.20296059 195.38761729 152.72705078 205.82177734 C152.37239746 206.64371582 152.01774414 207.4656543 151.65234375 208.3125 C151.35320068 209.00988281 151.05405762 209.70726563 150.74584961 210.42578125 C150 212 150 212 149 213 C146.1156618 213.08865208 143.25537842 213.11521296 140.37109375 213.09765625 C139.07474754 213.09553383 139.07474754 213.09553383 137.75221252 213.09336853 C134.98060708 213.08775239 132.2090812 213.07519719 129.4375 213.0625 C127.5631522 213.05748708 125.68880315 213.05292381 123.81445312 213.04882812 C119.20960456 213.03777772 114.60481579 213.0205023 110 213 C101.8483024 194.73553115 93.72546189 176.46088726 85.79833984 158.09765625 C83.04839903 151.72776559 80.28917333 145.36234775 77.50390625 139.0078125 C77.20605225 138.3281543 76.90819824 137.64849609 76.60131836 136.94824219 C75.19277533 133.73525369 73.78270148 130.52295276 72.37060547 127.31152344 C66.4918653 113.91095053 60.76524564 100.45223983 55 87 C54.67 136.17 54.34 185.34 54 236 C36.18 236 18.36 236 0 236 C0 158.12 0 80.24 0 0 Z " fill="#7F8789" transform="translate(1846,2467)"/>
<path d="M0 0 C21.78 0 43.56 0 66 0 C75.17466424 19.48523929 84.22881643 39.01191206 93.11000061 58.63188171 C95.43066138 63.75442085 97.76825279 68.86904355 100.11328125 73.98046875 C106.6600444 88.2531994 113.16902837 102.53447999 119.45727539 116.92358398 C122.547206 123.99305249 125.7114756 131.02055793 129 138 C130.98457291 135.02314063 132.43172513 132.10528723 133.94921875 128.8671875 C134.23818024 128.25175079 134.52714172 127.63631409 134.82485962 127.00222778 C135.78190291 124.96112981 136.73494286 122.91819511 137.6875 120.875 C138.01946381 120.16472656 138.35142761 119.45445312 138.69345093 118.72265625 C147.80151185 99.23248613 156.67539217 79.63680262 165.48828125 60.01171875 C167.03380889 56.57029216 168.57937718 53.12888384 170.125 49.6875 C170.50370239 48.84411072 170.88240479 48.00072144 171.27258301 47.1317749 C187.52990841 10.94018317 187.52990841 10.94018317 193 0 C214.78 0 236.56 0 259 0 C259 77.88 259 155.76 259 236 C241.51 236 224.02 236 206 236 C205.67 186.17 205.34 136.34 205 85 C201.04 94.24 197.08 103.48 193 113 C190.79971058 118.06639311 188.59572126 123.13016977 186.375 128.1875 C185.80417741 129.49035193 185.23346258 130.79325108 184.6628418 132.09619141 C181.66788956 138.93202755 178.66444385 145.76410848 175.65681458 152.59437561 C173.7077627 157.02083386 171.75998956 161.4478542 169.8125 165.875 C169.4290744 166.74627533 169.0456488 167.61755066 168.65060425 168.51522827 C163.35634029 180.55132204 158.1363793 192.61388758 153.08325195 204.75341797 C152.68323975 205.71135254 152.28322754 206.66928711 151.87109375 207.65625 C151.35953735 208.89084961 151.35953735 208.89084961 150.83764648 210.15039062 C150 212 150 212 149 213 C146.1156618 213.08865208 143.25537842 213.11521296 140.37109375 213.09765625 C139.07474754 213.09553383 139.07474754 213.09553383 137.75221252 213.09336853 C134.98060708 213.08775239 132.2090812 213.07519719 129.4375 213.0625 C127.5631522 213.05748708 125.68880315 213.05292381 123.81445312 213.04882812 C119.20960456 213.03777772 114.60481579 213.0205023 110 213 C104.58655207 201.56718542 99.44332169 190.02687364 94.375 178.4375 C93.57658093 176.61527915 92.77807714 174.79309542 91.97949219 172.97094727 C86.8624376 161.28849422 81.77557034 149.59318482 76.71484375 137.88623047 C72.03557907 127.06468674 67.31174703 116.26288529 62.57910156 105.46459961 C62.29525604 104.81675507 62.01141052 104.16891052 61.71896362 103.50143433 C60.95275281 101.75285959 60.18610969 100.0044743 59.41943359 98.25610352 C57.93184739 94.84366161 56.46639984 91.42159963 55 88 C54.67 136.84 54.34 185.68 54 236 C36.18 236 18.36 236 0 236 C0 158.12 0 80.24 0 0 Z " fill="#7F8789" transform="translate(3274,2467)"/>
<path d="M0 0 C4.5522737 1.51742457 8.73859426 3.1813394 13.0390625 5.23828125 C13.71003967 5.55572296 14.38101685 5.87316467 15.07232666 6.20022583 C16.51144992 6.8814538 17.94986694 7.56417542 19.38763428 8.2482605 C22.41521183 9.68837715 25.44667166 11.12023013 28.47793579 12.55256653 C30.0283799 13.2852665 31.57865162 14.01833138 33.12875366 14.75175476 C40.0963372 18.0484039 47.07026941 21.33115726 54.05633545 24.58847046 C55.84433885 25.42318608 57.63043961 26.26197333 59.41650391 27.10083008 C61.03177979 27.8533606 61.03177979 27.8533606 62.6796875 28.62109375 C63.61538574 29.0586499 64.55108398 29.49620605 65.51513672 29.94702148 C68.19635592 31.15902853 68.19635592 31.15902853 72 32 C72 216.47 72 400.94 72 591 C48.24 591 24.48 591 0 591 C0 395.97 0 200.94 0 0 Z " fill="#A77C4F" transform="translate(2809,1687)"/>
<path d="M0 0 C0 194.7 0 389.4 0 590 C-23.76 590 -47.52 590 -72 590 C-72 405.86 -72 221.72 -72 32 C-52.69686495 22.95165545 -33.42407545 13.94051044 -13.93798828 5.30712891 C-12.04199839 4.46359144 -10.14944973 3.61225583 -8.26123047 2.75146484 C-7.45186035 2.38359863 -6.64249023 2.01573242 -5.80859375 1.63671875 C-5.11435303 1.31791748 -4.4201123 0.99911621 -3.70483398 0.6706543 C-2 0 -2 0 0 0 Z " fill="#C2986B" transform="translate(2453,1688)"/>
<path d="M0 0 C131.39583333 0 131.39583333 0 149 6 C150.09957031 6.37125 151.19914062 6.7425 152.33203125 7.125 C173.37091563 14.7119761 187.98720699 27.776527 197.71484375 47.90625 C206.65134917 69.41905332 205.99837167 98.60357899 197.33422852 119.99584961 C193.92633032 127.93132581 189.9842557 134.69719076 184 141 C183.30132813 141.77601563 182.60265625 142.55203125 181.8828125 143.3515625 C177.16960135 148.36668753 172.19480084 152.07397924 166.28515625 155.58984375 C163.91528864 156.93110128 163.91528864 156.93110128 162 159 C169.61800826 171.25340068 177.2749325 183.47856984 185.0625 195.625 C185.72080811 196.65206055 186.37911621 197.67912109 187.05737305 198.73730469 C189.70929523 202.87285839 192.36254167 207.00755823 195.01757812 211.14111328 C196.95200922 214.15479809 198.8826024 217.17091068 200.8125 220.1875 C201.39330322 221.09000488 201.97410645 221.99250977 202.57250977 222.92236328 C203.3815979 224.18862549 203.3815979 224.18862549 204.20703125 225.48046875 C204.6760083 226.21160889 205.14498535 226.94274902 205.62817383 227.69604492 C207.22854332 230.38383401 208.60104377 233.20208754 210 236 C187.56 236 165.12 236 142 236 C136.88770914 227.05349099 131.92821042 218.16089931 127.25 209 C121.33963551 197.50704296 115.2413823 186.13043309 108.99291992 174.81811523 C108.30480553 173.55812313 107.64204074 172.28408147 107 171 C91.49 170.67 75.98 170.34 60 170 C60 191.78 60 213.56 60 236 C40.2 236 20.4 236 0 236 C0 158.12 0 80.24 0 0 Z " fill="#7F8789" transform="translate(2638,2467)"/>
<path d="M0 0 C150.71817032 0 150.71817032 0 175.75390625 23.75390625 C191.57706679 39.57706679 198.2320534 59.07678293 198.375 81.25 C198.17860109 105.70567233 192.70669182 127.23209684 175.58203125 145.58203125 C150.74160194 168.84409742 118.38029972 170.52885182 86.1875 170.1875 C77.875625 170.125625 69.56375 170.06375 61 170 C61 191.78 61 213.56 61 236 C40.87 236 20.74 236 0 236 C0 158.12 0 80.24 0 0 Z " fill="#7F8789" transform="translate(2162,2467)"/>
<path d="M0 0 C61.05 0 122.1 0 185 0 C185 15.84 185 31.68 185 48 C143.75 48 102.5 48 60 48 C60 63.18 60 78.36 60 94 C97.29 94 134.58 94 173 94 C173 109.51 173 125.02 173 141 C135.71 141 98.42 141 60 141 C60 156.84 60 172.68 60 189 C102.24 189 144.48 189 188 189 C188 204.51 188 220.02 188 236 C125.96 236 63.92 236 0 236 C0 158.12 0 80.24 0 0 Z " fill="#7F8789" transform="translate(2401,2467)"/>
<path d="M0 0 C19.8 0 39.6 0 60 0 C60.01458252 4.35993164 60.02916504 8.71986328 60.04418945 13.21191406 C60.09458564 27.63680118 60.16104107 42.06158156 60.23571491 56.48636246 C60.28058766 65.2298283 60.32002175 73.97325418 60.34643555 82.71679688 C60.36948488 90.34198295 60.40295973 97.96704168 60.44870156 105.59212661 C60.47254071 109.62564816 60.49133021 113.65904431 60.49761391 117.69263458 C60.50370724 121.49793529 60.52385804 125.30291554 60.55427551 129.10809708 C60.56298829 130.49628337 60.56679254 131.88451166 60.56500816 133.27272415 C60.55156724 148.56991462 63.42291089 163.30045797 74.125 174.875 C79.10334499 179.51640116 84.74003592 182.42336161 91 185 C91.90234375 185.37511719 92.8046875 185.75023438 93.734375 186.13671875 C106.61037527 189.54054179 121.8157513 187.77580933 133.5390625 181.6796875 C141.70998212 176.67875676 147.32591599 169.78362409 151 161 C151.28746094 160.31679687 151.57492188 159.63359375 151.87109375 158.9296875 C154.26805344 152.89714781 155.11929807 147.20303739 155.15821838 140.69778442 C155.1680072 139.45265579 155.17779602 138.20752716 155.18788147 136.92466736 C155.19378444 135.5580143 155.19959496 134.19136084 155.20532227 132.82470703 C155.21490963 131.37556179 155.22492021 129.92641929 155.23532104 128.47727966 C155.26228317 124.55422399 155.28333961 120.63115639 155.30332303 116.70805979 C155.3252364 112.60408784 155.35259884 108.50015227 155.37937927 104.39620972 C155.42923396 96.62970785 155.4741995 88.8631857 155.51740164 81.09664428 C155.56683586 72.25263488 155.621731 63.40866201 155.67708123 54.56468797 C155.79079034 36.37649108 155.89693253 18.18826052 156 0 C175.8 0 195.6 0 216 0 C216.06791623 19.28124263 216.12309724 38.56238729 216.15543652 57.84371948 C216.17085629 66.79787501 216.19185142 75.75195054 216.22631836 84.70605469 C216.25637139 92.51725065 216.27561046 100.32838863 216.28226548 108.13964081 C216.28615102 112.26947721 216.29517848 116.3991478 216.31719017 120.52893066 C216.33780771 124.42936801 216.34378379 128.32957391 216.33932304 132.23006058 C216.34013711 133.64885346 216.34595048 135.06765545 216.35761642 136.4864006 C216.57443062 164.25580042 207.66695418 190.56418335 188.375 210.74609375 C165.36159408 232.72255841 133.92209666 239.7684922 102.98046875 239.2578125 C72.4308563 238.27410405 44.95072813 228.08865192 23.31640625 206.296875 C1.24634152 181.6445094 -0.9428519 151.0916221 -0.60836363 119.57000041 C-0.57019439 115.34877726 -0.56728026 111.1275123 -0.56021118 106.90614319 C-0.54175274 98.95584695 -0.49278084 91.00606103 -0.43211424 83.05598694 C-0.36444773 73.98672865 -0.33191083 64.91744265 -0.30194163 55.84799373 C-0.2396584 37.23164996 -0.12987212 18.61600341 0 0 Z " fill="#7F8789" transform="translate(3005,2467)"/>
<path d="M0 0 C19.8 0 39.6 0 60 0 C60 77.88 60 155.76 60 236 C40.2 236 20.4 236 0 236 C0 158.12 0 80.24 0 0 Z " fill="#7F8789" transform="translate(2892,2467)"/>
<path d="M0 0 C19.8 0 39.6 0 60 0 C60 77.88 60 155.76 60 236 C40.2 236 20.4 236 0 236 C0 158.12 0 80.24 0 0 Z " fill="#7F8789" transform="translate(1729,2467)"/>
<path d="M0 0 C9.98877456 5.21019414 16.00808179 12.61220676 19.8857975 23.12948608 C20.88813221 26.53165955 20.92589437 29.87666191 20.87182617 33.38867188 C20.87248329 34.53159195 20.87248329 34.53159195 20.87315369 35.69760132 C20.87108323 38.18669321 20.84783616 40.67509001 20.82421875 43.1640625 C20.81861656 44.90140414 20.81434941 46.63875054 20.81135559 48.37609863 C20.7999558 52.92668979 20.77053105 57.47698915 20.73724365 62.02746582 C20.70643733 66.67972874 20.69282777 71.33203926 20.67773438 75.984375 C20.64565623 85.09648167 20.59451939 94.20837272 20.53125 103.3203125 C18.73119507 103.1083725 18.73119507 103.1083725 16.89477539 102.89215088 C15.2853403 102.70688689 13.6758827 102.52181842 12.06640625 102.33691406 C10.88624939 102.1971666 10.88624939 102.1971666 9.68225098 102.05459595 C2.32901213 101.21685532 -4.96581092 101.01498069 -12.36425781 101.05957031 C-14.46969351 101.07031732 -16.57427665 101.05956408 -18.6796875 101.046875 C-26.19906696 101.04218066 -33.5409594 101.45319432 -41.00390625 102.33691406 C-41.82379028 102.43110626 -42.64367432 102.52529846 -43.48840332 102.62234497 C-45.48221682 102.85185522 -47.47553867 103.0856301 -49.46875 103.3203125 C-49.60836845 93.09703387 -49.71468272 82.87398565 -49.77962303 72.64994431 C-49.81080679 67.90137573 -49.85303937 63.15346406 -49.92138672 58.40527344 C-49.98704606 53.8145842 -50.02255322 49.22452288 -50.03801346 44.63339996 C-50.04901697 42.89041522 -50.07050272 41.14746108 -50.10313034 39.40474701 C-50.3361957 26.42864097 -48.71211978 16.94774633 -39.71875 6.8828125 C-28.76021193 -3.25225161 -13.76823316 -5.79075689 0 0 Z " fill="#383B40" transform="translate(2645.46875,1119.6796875)"/>
<path d="M0 0 C9.19875 -0.061875 18.3975 -0.12375 27.875 -0.1875 C30.75976074 -0.21481201 33.64452148 -0.24212402 36.61669922 -0.27026367 C38.92935773 -0.27903392 41.24202092 -0.28667658 43.5546875 -0.29296875 C44.73426025 -0.30831665 45.91383301 -0.32366455 47.12915039 -0.33947754 C59.24812733 -0.34327818 68.68832611 2.35598453 77.75390625 10.59375 C85.68149428 19.01805408 86.58105868 28.1762868 86.47265625 39.30786133 C86.2575194 45.85725841 85.55828818 51.3596175 82 57 C81.55269531 57.721875 81.10539062 58.44375 80.64453125 59.1875 C75.3179173 66.95607369 68.96372122 70.58077415 60 73 C58.87907959 73.33990967 57.75815918 73.67981934 56.60327148 74.0300293 C51.04802359 75.40716976 45.53581265 75.24914717 39.84375 75.1953125 C38.82958008 75.19329834 37.81541016 75.19128418 36.77050781 75.18920898 C33.01362529 75.17881378 29.25680768 75.15089164 25.5 75.125 C17.085 75.08375 8.67 75.0425 0 75 C0 50.25 0 25.5 0 0 Z " fill="#383B40" transform="translate(2698,2515)"/>
<path d="M0 0 C11.818125 -0.061875 11.818125 -0.061875 23.875 -0.125 C26.34210449 -0.14320801 28.80920898 -0.16141602 31.35107422 -0.18017578 C33.33560978 -0.18602427 35.32014776 -0.19111898 37.3046875 -0.1953125 C38.31152588 -0.20554443 39.31836426 -0.21577637 40.35571289 -0.22631836 C52.28790527 -0.22922086 61.93141386 1.70179514 71.04296875 9.8203125 C78.96652367 18.16623176 80.59359778 26.71172411 80.47290039 37.88330078 C80.10301661 48.03355333 77.54101918 57.78193668 70 65 C60.27318407 72.27439896 50.93478208 74.46708193 38.96484375 74.29296875 C37.97133911 74.28994751 36.97783447 74.28692627 35.95422363 74.28381348 C32.28187508 74.26824733 28.60967589 74.22636446 24.9375 74.1875 C12.5934375 74.0946875 12.5934375 74.0946875 0 74 C0 49.58 0 25.16 0 0 Z " fill="#383B40" transform="translate(2223,2515)"/>
<path d="M0 0 C6.25095618 5.62586056 10.0782831 10.3719566 10.6987915 19.02082825 C10.79381099 22.37420526 10.82873969 25.72343593 10.84375 29.078125 C10.8583728 30.30408386 10.87299561 31.53004272 10.88806152 32.79315186 C10.95020327 38.02280489 10.99005851 43.25257206 11.03173828 48.48242188 C11.06538756 52.30611733 11.11050104 56.12955834 11.15625 59.953125 C11.16416565 61.7343576 11.16416565 61.7343576 11.17224121 63.55157471 C11.18565552 64.64991638 11.19906982 65.74825806 11.21289062 66.87988281 C11.22382751 68.33047089 11.22382751 68.33047089 11.23498535 69.81036377 C11.33802471 72.50710384 11.33802471 72.50710384 13.5 75.25 C17.06769552 75.98606499 17.06769552 75.98606499 20.5 76.25 C20.5 79.22 20.5 82.19 20.5 85.25 C7.76058181 86.02574265 7.76058181 86.02574265 3.25 83.25 C1.09152882 79.5497637 0.28412817 76.45577835 -0.5 72.25 C-0.81710938 72.75789063 -1.13421875 73.26578125 -1.4609375 73.7890625 C-6.39236991 81.06360644 -13.3804772 86.29272891 -22.18359375 88 C-33.54706598 89.22641184 -44.05751121 88.69685588 -53.4375 81.5625 C-59.17697746 76.00238121 -60.73934653 70.04914492 -61 62.1875 C-60.76174166 55.27056264 -59.79396309 50.49842443 -54.8046875 45.578125 C-45.67062334 38.1081616 -35.23417608 36.48238244 -23.8125 35.1875 C-12.74630381 34.15573601 -12.74630381 34.15573601 -2.5 30.25 C-0.4080609 26.06612181 -1.07118465 20.80616307 -1.5 16.25 C-3.64987228 11.71138075 -5.97903012 9.39746069 -10.5 7.25 C-14.25521076 6.00403145 -17.94328569 6.08211933 -21.875 6.0625 C-23.80472656 6.04123047 -23.80472656 6.04123047 -25.7734375 6.01953125 C-32.00271931 6.40478033 -36.63168747 8.35534998 -41.5 12.25 C-44.2189051 16.46899067 -45.0038363 20.28836296 -45.5 25.25 C-49.13 25.25 -52.76 25.25 -56.5 25.25 C-57.0031922 17.19892477 -55.02232845 11.75472182 -49.875 5.5 C-37.70281085 -7.38167922 -15.13758492 -7.56879246 0 0 Z " fill="#606567" transform="translate(2578.5,2840.75)"/>
<path d="M0 0 C6.25095618 5.62586056 10.0782831 10.3719566 10.6987915 19.02082825 C10.79381099 22.37420526 10.82873969 25.72343593 10.84375 29.078125 C10.8583728 30.30408386 10.87299561 31.53004272 10.88806152 32.79315186 C10.95020327 38.02280489 10.99005851 43.25257206 11.03173828 48.48242188 C11.06538756 52.30611733 11.11050104 56.12955834 11.15625 59.953125 C11.16416565 61.7343576 11.16416565 61.7343576 11.17224121 63.55157471 C11.18565552 64.64991638 11.19906982 65.74825806 11.21289062 66.87988281 C11.22382751 68.33047089 11.22382751 68.33047089 11.23498535 69.81036377 C11.33802471 72.50710384 11.33802471 72.50710384 13.5 75.25 C17.06769552 75.98606499 17.06769552 75.98606499 20.5 76.25 C20.5 79.22 20.5 82.19 20.5 85.25 C8.1353753 86.15350438 8.1353753 86.15350438 4.52734375 84.16015625 C1.55203339 80.72990547 0.45253695 76.57971342 -0.5 72.25 C-0.81710938 72.75789063 -1.13421875 73.26578125 -1.4609375 73.7890625 C-6.39236991 81.06360644 -13.3804772 86.29272891 -22.18359375 88 C-33.54706598 89.22641184 -44.05751121 88.69685588 -53.4375 81.5625 C-59.17697746 76.00238121 -60.73934653 70.04914492 -61 62.1875 C-60.76174166 55.27056264 -59.79396309 50.49842443 -54.8046875 45.578125 C-45.67062334 38.1081616 -35.23417608 36.48238244 -23.8125 35.1875 C-12.74630381 34.15573601 -12.74630381 34.15573601 -2.5 30.25 C-0.27780118 25.80560236 -0.98934517 20.07480773 -1.5 15.25 C-3.15206921 11.29392396 -5.874738 9.57231598 -9.65234375 7.625 C-13.779609 5.93034695 -17.58376609 5.80389784 -22 5.875 C-22.72058594 5.86339844 -23.44117187 5.85179688 -24.18359375 5.83984375 C-30.64403382 5.87489135 -35.33292234 7.37186603 -40.3125 11.6875 C-44.1015645 16.12611841 -44.82854471 19.43072084 -45.5 25.25 C-49.13 25.25 -52.76 25.25 -56.5 25.25 C-57.0031922 17.19892477 -55.02232845 11.75472182 -49.875 5.5 C-37.70281085 -7.38167922 -15.13758492 -7.56879246 0 0 Z " fill="#616567" transform="translate(2281.5,2840.75)"/>
<path d="M0 0 C0.6909375 0.42410156 1.381875 0.84820313 2.09375 1.28515625 C10.09508546 6.64425966 15.63298713 15.52069739 17.94921875 24.8046875 C18.20475988 26.15971073 18.45074479 27.51656848 18.6875 28.875 C18.81705078 29.54402344 18.94660156 30.21304688 19.08007812 30.90234375 C19.97333158 35.80814845 20 39.79415396 20 45 C-2.11 45 -24.22 45 -47 45 C-45.10732237 56.35606577 -43.53154284 65.19799526 -35 73 C-28.35910771 77.73937866 -21.99053402 78.77219446 -14 78 C-6.97563671 76.48928077 -1.90613349 73.99789844 2.5625 68.3046875 C5.00313791 64.39170824 6.48905496 60.35152172 8 56 C11.63 56 15.26 56 19 56 C16.8847171 67.28150881 12.75342401 75.47019289 3.7578125 82.8359375 C-6.36913959 89.23665202 -19.49951877 88.43906545 -31 87 C-35.61291531 85.94471102 -39.28549356 83.92363421 -43 81 C-43.68707031 80.47019531 -44.37414063 79.94039062 -45.08203125 79.39453125 C-49.88868992 75.13431377 -52.4959801 69.83333474 -55 64 C-55.35449219 63.19820312 -55.70898438 62.39640625 -56.07421875 61.5703125 C-60.71935568 48.6736876 -59.88212922 30.26017257 -54.48046875 17.77734375 C-49.69660398 8.80286394 -42.62578307 0.85031323 -33 -3 C-22.87598886 -5.65825991 -8.84054185 -6.01231765 0 0 Z " fill="#606566" transform="translate(3008,2841)"/>
<path d="M0 0 C2.75390625 1.69140625 2.75390625 1.69140625 5.125 3.4375 C5.79402344 3.92089844 6.46304688 4.40429688 7.15234375 4.90234375 C15.32918225 11.93406702 19.92182361 24.00997125 21.125 34.4375 C21.125 38.3975 21.125 42.3575 21.125 46.4375 C-0.985 46.4375 -23.095 46.4375 -45.875 46.4375 C-42.57709756 64.18508151 -42.57709756 64.18508151 -30.87109375 76.3203125 C-23.96623004 80.18487419 -16.31480983 80.64123154 -8.77734375 78.59765625 C1.81101055 74.70082697 5.5525478 68.28585858 10.125 58.4375 C13.425 58.4375 16.725 58.4375 20.125 58.4375 C18.11447595 69.95231956 13.19048385 78.43996264 3.5625 85.25 C-3.08645784 88.48923587 -8.90555133 88.77332463 -16.1875 88.75 C-17.18201172 88.76611328 -18.17652344 88.78222656 -19.20117188 88.79882812 C-30.08333635 88.80597334 -37.99336304 86.06632974 -45.875 78.4375 C-56.39383869 66.25902232 -57.8496148 49.88943879 -56.875 34.4375 C-55.41823917 22.4359291 -50.52150306 11.48699661 -40.9296875 3.8359375 C-29.45361175 -3.97477565 -12.7651239 -6.11425043 0 0 Z " fill="#606566" transform="translate(2740.875,2839.5625)"/>
<path d="M0 0 C10.04339005 7.11576218 14.9410518 17.56594072 17.390625 29.421875 C19.67352159 45.8622698 17.32802069 61.41689069 7.37109375 75.15234375 C0.56952484 82.68383713 -9.00821316 86.45198099 -18.9296875 87.2890625 C-29.16717087 87.55442701 -37.1794798 84.98619406 -45.3515625 78.80859375 C-47.10546875 77.05078125 -47.10546875 77.05078125 -51.10546875 71.05078125 C-51.43546875 86.23078125 -51.76546875 101.41078125 -52.10546875 117.05078125 C-55.73546875 117.05078125 -59.36546875 117.05078125 -63.10546875 117.05078125 C-63.10546875 77.45078125 -63.10546875 37.85078125 -63.10546875 -2.94921875 C-59.80546875 -2.94921875 -56.50546875 -2.94921875 -53.10546875 -2.94921875 C-52.77546875 1.67078125 -52.44546875 6.29078125 -52.10546875 11.05078125 C-51.30109375 9.85453125 -50.49671875 8.65828125 -49.66796875 7.42578125 C-38.12832634 -7.92412045 -15.78059057 -9.16707182 0 0 Z M-44.10546875 12.05078125 C-52.43451371 21.98904721 -52.84261146 34.61345847 -52.10546875 47.05078125 C-51.16835969 56.14469876 -48.14421357 64.5833085 -41.35546875 70.92578125 C-34.69391676 76.19276535 -28.44896851 78.80142599 -19.875 78.4296875 C-11.53581198 77.28878307 -5.21177393 73.74086023 -0.10546875 67.05078125 C1.52314474 64.47652122 2.74264129 61.86651226 3.89453125 59.05078125 C4.19359375 58.43203125 4.49265625 57.81328125 4.80078125 57.17578125 C8.80474409 47.68490637 8.46649384 33.88196124 4.9375 24.2890625 C0.49694166 14.75932493 -4.19501772 8.25092478 -14.10546875 4.05078125 C-17.7869383 3.61606489 -17.7869383 3.61606489 -21.60546875 3.73828125 C-23.508125 3.74408203 -23.508125 3.74408203 -25.44921875 3.75 C-32.78464158 4.35344825 -38.5806092 7.28694886 -44.10546875 12.05078125 Z " fill="#606567" transform="translate(2920.10546875,2841.94921875)"/>
<path d="M0 0 C0.88260498 -0.01861084 1.76520996 -0.03722168 2.67456055 -0.05639648 C12.093882 0.03419929 18.89429498 3.40936238 25.71875 9.7734375 C30.06620514 14.30545441 32.26784411 19.60679101 32.5 25.875 C32.45875 26.74125 32.4175 27.6075 32.375 28.5 C28.745 28.5 25.115 28.5 21.375 28.5 C20.83875 26.788125 20.3025 25.07625 19.75 23.3125 C17.48667614 17.09035877 15.14801755 14.37981903 9.171875 11.40234375 C2.28089439 9.17913632 -7.83328973 9.14414191 -14.4375 12.1875 C-18.3663773 15.03786197 -20.19129892 16.79429668 -20.96875 21.64453125 C-21.24069548 25.74410939 -21.05841962 27.87084248 -18.6875 31.3125 C-10.29966784 37.30380869 -0.6847114 39.06774513 9.22460938 41.2109375 C17.25630423 43.02501794 24.80481559 44.85898773 30.25 51.4375 C30.80429688 52.08589844 31.35859375 52.73429687 31.9296875 53.40234375 C35.85776704 59.1033673 36.22409371 64.77048069 35.375 71.5 C33.02379168 79.36399288 28.39355203 84.40299158 21.375 88.5 C10.14381798 93.51425095 -3.93291985 94.44912764 -15.625 90.5 C-23.78517672 87.15299467 -30.01458107 82.71368951 -33.5390625 74.32421875 C-35.11717046 69.93648868 -35.98795899 66.21846685 -35.625 61.5 C-31.995 61.5 -28.365 61.5 -24.625 61.5 C-24.3775 62.69625 -24.13 63.8925 -23.875 65.125 C-22.28528762 71.41714832 -19.10092285 75.97107194 -13.625 79.5 C-4.75703245 83.59967547 3.9163057 83.55927969 13.109375 80.48046875 C17.41188152 78.61852196 20.36191709 76.24987049 22.75 72.125 C23.94878585 67.09009944 24.17943781 63.86754427 21.5 59.3125 C14.74417336 52.17546685 2.43945299 50.91314911 -6.703125 48.87695312 C-16.25647797 46.6294656 -24.92831427 43.86700716 -30.625 35.5 C-33.94570263 30.02025396 -33.27511737 23.31702578 -32.23046875 17.18359375 C-30.19232538 10.46429528 -25.25184278 6.65323941 -19.39453125 3.17578125 C-13.10712161 0.32695494 -6.79525092 0.09428789 0 0 Z " fill="#606567" transform="translate(3175.625,2836.5)"/>
<path d="M0 0 C7.70701436 3.90108134 11.6190426 10.30375889 14.38024902 18.24771118 C15.91512358 24.4314824 15.67420026 30.68779118 15.578125 37.01171875 C15.57064597 38.4757255 15.56496092 39.93974239 15.56097412 41.40376282 C15.54584807 45.21960068 15.50668298 49.03480992 15.4621582 52.85040283 C15.42092044 56.75890606 15.40290286 60.66751287 15.3828125 64.57617188 C15.34017247 72.2177316 15.27208441 79.85877705 15.1875 87.5 C11.5575 87.5 7.9275 87.5 4.1875 87.5 C4.18203156 86.34940598 4.18203156 86.34940598 4.17645264 85.17556763 C4.13841675 77.90862919 4.08138962 70.64219462 4.00359726 63.37558174 C3.96426793 59.64067074 3.93200903 55.90599035 3.91650391 52.17089844 C3.90124025 48.55903889 3.86662664 44.94781401 3.81919098 41.33623886 C3.80447624 39.96576361 3.79646474 38.59519769 3.79561615 37.22464371 C3.78416486 27.9943865 3.47327046 19.01133733 -3.1875 12 C-10.68190692 7.71748176 -18.81767909 7.3900398 -27.1875 9.25 C-35.03774954 12.98821407 -39.76174101 18.13591846 -42.87362671 26.27554321 C-43.81650887 29.51376803 -44.08730867 32.14372854 -44.13134766 35.50537109 C-44.15121735 36.66612152 -44.17108704 37.82687195 -44.19155884 39.02279663 C-44.20311005 40.26050812 -44.21466125 41.4982196 -44.2265625 42.7734375 C-44.24592865 44.05231842 -44.2652948 45.33119934 -44.2852478 46.64883423 C-44.33478279 50.03207162 -44.37610235 53.41520382 -44.41339111 56.79858398 C-44.45355483 60.25774773 -44.50459044 63.71674963 -44.5546875 67.17578125 C-44.65060717 73.95042522 -44.73468605 80.72512485 -44.8125 87.5 C-48.4425 87.5 -52.0725 87.5 -55.8125 87.5 C-55.8125 58.79 -55.8125 30.08 -55.8125 0.5 C-52.1825 0.5 -48.5525 0.5 -44.8125 0.5 C-44.4825 4.46 -44.1525 8.42 -43.8125 12.5 C-43.19375 11.46875 -42.575 10.4375 -41.9375 9.375 C-33.13537094 -3.06938936 -13.54764361 -4.77533401 0 0 Z " fill="#616667" transform="translate(2190.8125,2838.5)"/>
<path d="M0 0 C6.30258347 3.72425387 9.69126922 7.9912451 11.7265625 15.01171875 C12.82028172 19.98393461 13.35813086 24.689895 13.34790039 29.78466797 C13.34778709 31.67594925 13.34778709 31.67594925 13.34767151 33.60543823 C13.34256609 34.9661259 13.33735011 36.32681315 13.33203125 37.6875 C13.33016412 39.09139963 13.32874161 40.49529992 13.32774353 41.89920044 C13.32394158 45.57838772 13.31413133 49.25753498 13.30303955 52.93670654 C13.29277531 56.69738219 13.2882352 60.45806436 13.28320312 64.21875 C13.27250679 71.58595567 13.25545852 78.95312846 13.234375 86.3203125 C9.604375 86.3203125 5.974375 86.3203125 2.234375 86.3203125 C2.22890656 85.14759544 2.22890656 85.14759544 2.22332764 83.95118713 C2.18532214 76.55149594 2.12832868 69.15230126 2.05047226 61.75293064 C2.01111078 57.94960979 1.97886739 54.14651652 1.96337891 50.34301758 C1.94813677 46.6663283 1.91356008 42.99026518 1.86606598 39.31385612 C1.85132939 37.91743375 1.84333845 36.52092194 1.84249115 35.12442207 C1.83283731 27.18513062 1.6815572 20.14148883 -2.765625 13.3203125 C-7.68919811 8.51982871 -11.67984012 7.03020044 -18.515625 7.0078125 C-26.28602401 7.13678178 -32.38767415 8.26642239 -38.3828125 13.671875 C-44.11375014 20.50367071 -45.83043709 28.33866197 -45.97094727 37.05029297 C-45.99089249 38.15098114 -46.01083771 39.25166931 -46.03138733 40.38571167 C-46.04809982 41.55780182 -46.06481232 42.72989197 -46.08203125 43.9375 C-46.10281235 45.14979279 -46.12359344 46.36208557 -46.14500427 47.6111145 C-46.21023482 51.4724578 -46.26926151 55.33386741 -46.328125 59.1953125 C-46.37133541 61.81771511 -46.4149505 64.44011109 -46.45898438 67.0625 C-46.56588907 73.48170337 -46.66723099 79.90097326 -46.765625 86.3203125 C-50.395625 86.3203125 -54.025625 86.3203125 -57.765625 86.3203125 C-57.765625 57.6103125 -57.765625 28.9003125 -57.765625 -0.6796875 C-54.135625 -0.6796875 -50.505625 -0.6796875 -46.765625 -0.6796875 C-46.435625 3.2803125 -46.105625 7.2403125 -45.765625 11.3203125 C-44.734375 10.0828125 -43.703125 8.8453125 -42.640625 7.5703125 C-32.11517235 -4.44058709 -14.4684541 -6.42543148 0 0 Z " fill="#616667" transform="translate(2370.765625,2839.6796875)"/>
<path d="M0 0 C4.75827127 -1.23657202 9.3783609 -1.96004494 14 0 C19.18170543 4.57728457 22.75440229 10.77769156 26.43408203 16.56689453 C28.56787008 19.88235005 30.8785107 23.03996755 33.25 26.1875 C33.93578125 27.12980469 34.6215625 28.07210937 35.328125 29.04296875 C36.15570312 30.01169922 36.15570312 30.01169922 37 31 C37.66 31 38.32 31 39 31 C40.54342657 29.03228485 41.96672125 27.06201455 43.375 25 C44.26514196 23.72401324 45.1571511 22.44932751 46.05078125 21.17578125 C46.52467285 20.4998291 46.99856445 19.82387695 47.48681641 19.12744141 C50.1145833 15.43296566 52.83718417 11.8103061 55.5625 8.1875 C56.0869873 7.48818359 56.61147461 6.78886719 57.15185547 6.06835938 C60.86155386 1.13844614 60.86155386 1.13844614 62 0 C64.18639453 -0.07258946 66.37500389 -0.08373783 68.5625 -0.0625 C70.35880859 -0.04896484 70.35880859 -0.04896484 72.19140625 -0.03515625 C73.11824219 -0.02355469 74.04507813 -0.01195313 75 0 C73.64282151 2.88425532 72.09374438 5.38822109 70.19921875 7.94921875 C69.63984619 8.70702637 69.08047363 9.46483398 68.50415039 10.24560547 C67.90465576 11.05143066 67.30516113 11.85725586 66.6875 12.6875 C66.07318115 13.52168457 65.4588623 14.35586914 64.82592773 15.21533203 C61.6680683 19.48576128 58.46329678 23.70552319 55.1484375 27.85546875 C54.54555908 28.61706299 53.94268066 29.37865723 53.3215332 30.16333008 C52.16901676 31.61241356 51.00385209 33.05154719 49.82495117 34.47924805 C46.87793192 38.0963672 46.87793192 38.0963672 45.796875 42.5 C47.61161044 46.27087884 50.07754577 49.36926054 52.6875 52.625 C53.86877818 54.13286978 55.04840385 55.6420353 56.2265625 57.15234375 C56.84305664 57.9397998 57.45955078 58.72725586 58.09472656 59.53857422 C61.31916979 63.70423754 64.44201455 67.94370609 67.5625 72.1875 C68.14539795 72.97656738 68.7282959 73.76563477 69.32885742 74.57861328 C72.32754582 78.65466167 75.23524281 82.76160694 78 87 C73.17463482 87.67953222 68.80915184 87.884148 64 87 C60.0321712 83.99261387 57.67032045 80.15869578 55 76 C53.75714109 74.22968633 52.49208336 72.47673713 51.22509766 70.72363281 C49.95091826 68.95611358 48.69582283 67.17610911 47.44140625 65.39453125 C44.15614462 60.77475474 40.60627265 56.37185008 37 52 C29.92163442 61.3612979 22.94209125 70.78405318 16.1027832 80.32177734 C15.58031006 81.04961426 15.05783691 81.77745117 14.51953125 82.52734375 C14.05651611 83.17437256 13.59350098 83.82140137 13.11645508 84.48803711 C12 86 12 86 11 87 C8.81360547 87.07258946 6.62499611 87.08373783 4.4375 87.0625 C3.23996094 87.05347656 2.04242187 87.04445313 0.80859375 87.03515625 C-0.58166016 87.01775391 -0.58166016 87.01775391 -2 87 C-0.40497653 81.7855002 2.89314378 78.05620388 6.25 73.875 C7.51089565 72.27614257 8.76995028 70.67583188 10.02734375 69.07421875 C10.67815918 68.24583496 11.32897461 67.41745117 11.99951172 66.56396484 C15.31988227 62.30834713 18.58027593 58.010326 21.8125 53.6875 C22.41674805 52.8939209 23.02099609 52.1003418 23.64355469 51.28271484 C24.20075195 50.53328613 24.75794922 49.78385742 25.33203125 49.01171875 C25.82421143 48.35647217 26.3163916 47.70122559 26.82348633 47.02612305 C28.22825226 44.60691731 28.79901617 42.79373012 29 40 C28.10153126 37.99958614 28.10153126 37.99958614 26.52734375 36.2421875 C25.96362061 35.54295166 25.39989746 34.84371582 24.8190918 34.12329102 C24.1981665 33.38135498 23.57724121 32.63941895 22.9375 31.875 C21.64879627 30.27915438 20.36241289 28.68143275 19.078125 27.08203125 C18.40845703 26.25396973 17.73878906 25.4259082 17.04882812 24.57275391 C13.65694324 20.31349712 10.41759509 15.9450241 7.1875 11.5625 C6.58349365 10.75216309 5.9794873 9.94182617 5.35717773 9.10693359 C4.79973877 8.35105957 4.2422998 7.59518555 3.66796875 6.81640625 C3.17578857 6.15068604 2.6836084 5.48496582 2.17651367 4.79907227 C1 3 1 3 0 0 Z " fill="#616667" transform="translate(2769,2839)"/>
<path d="M0 0 C8.27741709 5.17338568 12.24806205 10.86776949 14.89453125 20.15234375 C15.375 22.484375 15.375 22.484375 15.375 26.484375 C11.745 26.484375 8.115 26.484375 4.375 26.484375 C3.83875 24.97875 3.3025 23.473125 2.75 21.921875 C0.22918476 15.69916326 -2.83100512 10.45179571 -9.125 7.546875 C-16.28817034 5.34282259 -25.31379256 4.96327532 -32.1875 8.171875 C-40.03215305 12.94542984 -45.25691809 20.31280469 -48.00537109 28.93798828 C-49.08589732 33.3784487 -49.15588543 37.74444238 -49.125 42.296875 C-49.12000488 43.26375244 -49.11500977 44.23062988 -49.10986328 45.22680664 C-48.92507852 52.81126521 -47.70495688 58.96732387 -43.625 65.484375 C-43.21378906 66.16371094 -42.80257812 66.84304687 -42.37890625 67.54296875 C-37.90126742 73.72131314 -30.33420702 77.58640394 -22.94140625 78.99609375 C-15.60112203 79.32818149 -9.99687483 76.55348001 -3.875 72.796875 C1.10910315 67.67432454 3.76486683 61.36403489 5.375 54.484375 C9.005 54.484375 12.635 54.484375 16.375 54.484375 C14.7467378 64.84604357 11.28625606 75.43113483 2.45703125 81.88671875 C-8.17095671 88.76599801 -19.24228743 88.80751428 -31.625 87.484375 C-36.17907126 86.41442375 -39.87526453 84.24901047 -43.625 81.484375 C-44.64207031 80.78248047 -44.64207031 80.78248047 -45.6796875 80.06640625 C-54.0278803 73.67090232 -59.15891783 63.80716838 -60.625 53.484375 C-60.93337982 49.58653951 -61.03313576 45.70606706 -61.0625 41.796875 C-61.07265137 40.83507324 -61.08280273 39.87327148 -61.09326172 38.88232422 C-60.93801441 26.13236532 -56.56537116 15.52938576 -47.875 6.171875 C-35.48268447 -5.62350818 -15.13780093 -7.29858259 0 0 Z " fill="#616567" transform="translate(2460.625,2840.515625)"/>
<path d="M0 0 C1.13598633 0.00483398 1.13598633 0.00483398 2.29492188 0.00976562 C3.47344727 0.02233398 3.47344727 0.02233398 4.67578125 0.03515625 C5.47306641 0.03966797 6.27035156 0.04417969 7.09179688 0.04882812 C9.05732382 0.06059775 11.0228121 0.07853277 12.98828125 0.09765625 C12.98828125 3.06765625 12.98828125 6.03765625 12.98828125 9.09765625 C11.66763672 9.11892578 11.66763672 9.11892578 10.3203125 9.140625 C8.57814453 9.21216797 8.57814453 9.21216797 6.80078125 9.28515625 C5.65222656 9.31996094 4.50367187 9.35476562 3.3203125 9.390625 C-1.03283302 10.3143288 -2.45881393 11.45601262 -5.01171875 15.09765625 C-5.7231432 18.20728708 -5.80161992 21.22874385 -5.82421875 24.41015625 C-5.84935547 25.24611328 -5.87449219 26.08207031 -5.90039062 26.94335938 C-5.95898865 28.99429034 -5.98828368 31.04602218 -6.01171875 33.09765625 C-0.40171875 33.09765625 5.20828125 33.09765625 10.98828125 33.09765625 C10.98828125 36.06765625 10.98828125 39.03765625 10.98828125 42.09765625 C5.37828125 42.09765625 -0.23171875 42.09765625 -6.01171875 42.09765625 C-6.01171875 67.83765625 -6.01171875 93.57765625 -6.01171875 120.09765625 C-9.64171875 120.09765625 -13.27171875 120.09765625 -17.01171875 120.09765625 C-17.01171875 94.35765625 -17.01171875 68.61765625 -17.01171875 42.09765625 C-21.96171875 42.09765625 -26.91171875 42.09765625 -32.01171875 42.09765625 C-32.01171875 39.12765625 -32.01171875 36.15765625 -32.01171875 33.09765625 C-27.06171875 33.09765625 -22.11171875 33.09765625 -17.01171875 33.09765625 C-17.06392578 31.41349609 -17.06392578 31.41349609 -17.1171875 29.6953125 C-17.53260709 11.0014308 -17.53260709 11.0014308 -12.359375 5.265625 C-8.46047495 1.74589916 -5.35435121 -0.04025828 0 0 Z " fill="#616667" transform="translate(2083.01171875,2805.90234375)"/>
<path d="M0 0 C3.63 0 7.26 0 11 0 C11 8.58 11 17.16 11 26 C16.61 26 22.22 26 28 26 C28 28.97 28 31.94 28 35 C22.39 35 16.78 35 11 35 C11.06296731 43.25845825 11.13841825 51.5165152 11.23571491 59.77463055 C11.28039984 63.60941647 11.31965984 67.44409663 11.34643555 71.27905273 C11.37248767 74.98157695 11.41290288 78.68369372 11.46318626 82.38596535 C11.47984221 83.79686214 11.49136444 85.20782939 11.49761391 86.61881065 C11.50726789 88.59844548 11.53703951 90.577951 11.56762695 92.55737305 C11.57873001 93.68322311 11.58983307 94.80907318 11.60127258 95.96903992 C12.05103794 99.3879692 12.87515911 101.2957639 15 104 C18.40934596 104.82304013 18.40934596 104.82304013 22.1875 104.8125 C23.45980469 104.86019531 24.73210938 104.90789063 26.04296875 104.95703125 C27.50669922 104.97830078 27.50669922 104.97830078 29 105 C29 107.97 29 110.94 29 114 C26.29139335 114.05429278 23.58389099 114.09381211 20.875 114.125 C19.73417969 114.15013672 19.73417969 114.15013672 18.5703125 114.17578125 C12.97957431 114.22397727 8.26530353 113.82482785 3.75 110.1875 C0.20066696 105.7508337 -0.24778039 101.77681597 -0.22705078 96.19018555 C-0.22734283 95.52621262 -0.22763489 94.86223969 -0.22793579 94.17814636 C-0.2265496 91.99753457 -0.21102239 89.81727038 -0.1953125 87.63671875 C-0.19157983 86.11929003 -0.18873406 84.60185888 -0.18673706 83.08442688 C-0.17912055 79.10103641 -0.15948923 75.11779302 -0.1373291 71.13446045 C-0.11682786 67.065572 -0.10772621 62.99665965 -0.09765625 58.92773438 C-0.07624132 50.95174807 -0.04107547 42.97590931 0 35 C-4.95 35 -9.9 35 -15 35 C-15 32.03 -15 29.06 -15 26 C-10.05 26 -5.1 26 0 26 C0 17.42 0 8.84 0 0 Z " fill="#616667" transform="translate(3101,2813)"/>
<path d="M0 0 C0.83494919 22.79875139 0.83494919 22.79875139 -7.125 31.8125 C-13.58452079 37.82557443 -22.86732881 40.4268452 -31.5625 40.26953125 C-37.75872185 39.5843721 -42.52946496 37.05557642 -46.5625 32.3125 C-49.52311191 27.91668841 -49.81124408 24.15436789 -49 19 C-48.10622307 15.0673815 -46.27778918 12.6453625 -43.046875 10.19140625 C-34.43287325 5.17753119 -24.04308199 4.23624469 -14.33569336 3.03857422 C-9.72042662 2.45988713 -4.40557142 0 0 0 Z " fill="#383B40" transform="translate(2578,2880)"/>
<path d="M0 0 C0.83494919 22.79875139 0.83494919 22.79875139 -7.125 31.8125 C-13.52043019 37.76591342 -22.85964055 40.46804989 -31.4921875 40.33984375 C-37.58138726 39.51467182 -43.20522927 36.50023064 -47.125 31.75 C-50.17597422 26.81238095 -49.61569842 21.70907304 -48.375 16.25 C-44.15531141 9.34505504 -37.71840009 7.27505304 -30.14746094 5.4453125 C-24.92576239 4.36250462 -19.62588905 3.69126378 -14.33569336 3.03857422 C-9.72042662 2.45988713 -4.40557142 0 0 0 Z " fill="#383B40" transform="translate(2281,2880)"/>
<path d="M0 0 C0 3.63 0 7.26 0 11 C-0.82242188 11.07476563 -1.64484375 11.14953125 -2.4921875 11.2265625 C-11.4071387 12.27659139 -18.83957293 14.16490908 -24.87890625 21.18359375 C-30.60458009 29.36509877 -31.31579624 36.6135343 -31.4140625 46.3984375 C-31.43342865 47.58853424 -31.4527948 48.77863098 -31.4727478 50.00479126 C-31.53238503 53.79478861 -31.57886616 57.58481659 -31.625 61.375 C-31.66319431 63.94923178 -31.70224689 66.52345097 -31.7421875 69.09765625 C-31.83807381 75.39833496 -31.92216391 81.69907349 -32 88 C-35.96 88 -39.92 88 -44 88 C-44 59.29 -44 30.58 -44 1 C-40.37 1 -36.74 1 -33 1 C-32.67 6.28 -32.34 11.56 -32 17 C-31.030625 15.63875 -30.06125 14.2775 -29.0625 12.875 C-21.14858897 2.68162575 -12.50628418 -0.30135625 0 0 Z " fill="#5F6466" transform="translate(3085,2838)"/>
<path d="M0 0 C7.89983992 4.60388022 11.662752 10.91478611 15.08203125 19.21875 C15.76953125 22.03125 15.76953125 22.03125 15.76953125 28.03125 C-2.71046875 28.03125 -21.19046875 28.03125 -40.23046875 28.03125 C-39.0370398 18.48381842 -36.52785994 10.57982225 -29.23046875 3.96875 C-27.91927002 2.96013559 -26.58788797 1.97674363 -25.23046875 1.03125 C-24.34359375 0.391875 -23.45671875 -0.2475 -22.54296875 -0.90625 C-15.42273012 -3.19010013 -6.88225058 -3.12961289 0 0 Z " fill="#383B40" transform="translate(2735.23046875,2847.96875)"/>
<path d="M0 0 C8.0324255 4.90201556 12.6295463 11.63863891 15.5625 20.4375 C15.5625 23.0775 15.5625 25.7175 15.5625 28.4375 C-2.5875 28.4375 -20.7375 28.4375 -39.4375 28.4375 C-38.29527306 18.15745755 -36.05958015 10.92644744 -28.296875 3.91015625 C-20.30535552 -2.41926149 -9.61344333 -4.32886045 0 0 Z " fill="#383B40" transform="translate(3000.4375,2847.5625)"/>
<path d="M0 0 C3.3 0 6.6 0 10 0 C10 39.6 10 79.2 10 120 C6.7 120 3.4 120 0 120 C0 80.4 0 40.8 0 0 Z " fill="#626768" transform="translate(2611,2806)"/>
<path d="M0 0 C3.63 0 7.26 0 11 0 C11 28.71 11 57.42 11 87 C7.37 87 3.74 87 0 87 C0 58.29 0 29.58 0 0 Z " fill="#606566" transform="translate(2492,2839)"/>
<path d="M0 0 C3.63 0 7.26 0 11 0 C11 28.71 11 57.42 11 87 C7.37 87 3.74 87 0 87 C0 58.29 0 29.58 0 0 Z " fill="#616768" transform="translate(2104,2839)"/>
<path d="M0 0 C3.63 0 7.26 0 11 0 C11 5.94 11 11.88 11 18 C7.37 18 3.74 18 0 18 C0 12.06 0 6.12 0 0 Z " fill="#616667" transform="translate(2104,2805)"/>
<path d="M0 0 C3.3 0 6.6 0 10 0 C10 5.61 10 11.22 10 17 C6.7 17 3.4 17 0 17 C0 11.39 0 5.78 0 0 Z " fill="#626768" transform="translate(2492,2806)"/>
</svg>
